<svg width="180" height="53" viewBox="0 0 180 53" fill="none" xmlns="http://www.w3.org/2000/svg">
<g clip-path="url(#clip0_51_6)">
<path d="M43.7231 7.36211L19.298 2.09622C13.9281 0.93851 8.62486 4.30011 7.45287 9.60455L2.12202 33.732C0.950023 39.0365 4.35309 44.2751 9.72298 45.4328L34.1481 50.6987C39.518 51.8564 44.8212 48.4948 45.9932 43.1904L51.3241 19.0629C52.4961 13.7584 49.093 8.51982 43.7231 7.36211Z" fill="#A4A4A4"/>
<path d="M37.2398 7.20682H16.4706C11.4522 7.20682 7.38403 11.2254 7.38403 16.1826V36.6988C7.38403 41.656 11.4522 45.6746 16.4706 45.6746H37.2398C42.2582 45.6746 46.3263 41.656 46.3263 36.6988V16.1826C46.3263 11.2254 42.2582 7.20682 37.2398 7.20682Z" fill="black"/>
<path d="M23.2712 27.1173C23.3852 27.9691 22.8457 28.878 22.4087 29.6142C22.0383 30.2382 21.7415 30.738 21.9787 30.9739C22.2207 31.2146 22.7955 31.0346 23.5009 30.8137C24.3026 30.5627 25.2728 30.2589 26.1147 30.4597M23.2712 27.1173C23.1691 26.3544 22.6289 25.7289 22.165 25.1919C21.7881 24.7556 21.4617 24.3777 21.4617 24.032C21.4617 23.6685 22.04 23.7942 22.8008 23.9598C23.6544 24.1454 24.738 24.3812 25.4926 24.032C26.2019 23.7037 26.7205 22.9268 27.1307 22.3124C27.4472 21.8382 27.699 21.4609 27.9243 21.4609C28.1645 21.4609 28.3433 21.9579 28.5723 22.5944C28.836 23.3275 29.1662 24.2456 29.7338 24.8033M23.2712 27.1173C19.9107 26.8616 17.8333 27.8346 17.0672 29.1756C15.7747 30.9754 14.696 34.0536 15.078 34.6494C15.5261 35.346 19.4621 35.2973 21.9787 34.832C23.7386 34.5067 25.2732 31.112 26.1147 30.4597M23.2712 27.1173C22.5055 26.4227 18.3704 26.4646 17.3257 24.8033C16.0332 22.7479 14.9992 20.1768 15.4266 19.1123C15.6862 18.4657 19.3985 18.1405 21.7202 19.4055C23.8339 20.5572 24.6911 23.3241 25.4926 24.0326C25.5944 23.1549 24.247 21.121 24.9855 19.1123C25.9559 16.4724 29.1148 13.876 29.766 14.0046C30.4974 14.1501 32.0182 17.2979 31.8917 20.1769C31.7979 22.311 30.235 24.2973 29.7338 24.8033M26.1147 30.4597C27.0137 30.674 27.8344 31.5342 28.4836 32.2146C29.0541 32.8124 29.4919 33.2713 29.7338 33.0308C29.96 32.8057 29.8884 32.2598 29.8017 31.5987C29.6903 30.7494 29.554 29.7102 29.9923 28.917M26.1147 30.4597C25.8562 31.5987 25.3392 33.8036 26.6318 36.3747C28.6431 37.842 32.1469 39.3019 32.8358 38.9458C33.4547 38.6246 33.8698 36.3747 33.6113 33.8036C33.0724 30.4597 30.3532 30.1029 29.9923 28.917M29.7338 24.8033C30.2819 25.3419 31.1695 25.6421 31.8917 25.8863C32.5509 26.1092 33.0724 26.2855 33.0724 26.5542C33.0724 26.7992 32.6276 27.0277 32.0649 27.3168C31.3345 27.692 30.4054 28.1692 29.9923 28.917M29.7338 24.8033C30.326 24.3295 31.4352 22.6848 33.6113 22.7479C36.2303 22.824 39.9311 24.7179 39.999 25.4202C40.065 26.1139 36.7711 28.8656 34.9038 29.947C33.7255 30.6292 30.8254 28.8321 29.9923 28.917" stroke="white" stroke-width="2"/>
<path fill-rule="evenodd" clip-rule="evenodd" d="M22.6663 24.8481C22.3092 24.3981 22 24.0083 22 23.6517C22 23.2768 22.5478 23.4065 23.2687 23.5773C24.0774 23.7688 25.1039 24.0119 25.8188 23.6517C26.4908 23.3132 26.9822 22.5119 27.3708 21.8782C27.6706 21.3892 27.9092 21 28.1226 21C28.3502 21 28.5196 21.5126 28.7365 22.1691C28.9864 22.9251 29.2993 23.8721 29.8369 24.4472C30.3563 25.0028 31.1971 25.3123 31.8813 25.5642C32.5059 25.7941 33 25.976 33 26.2531C33 26.5058 32.5786 26.7415 32.0454 27.0396C31.3535 27.4265 30.4733 27.9187 30.0818 28.69C29.6666 29.508 29.7958 30.5799 29.9013 31.4557C29.9835 32.1375 30.0513 32.7006 29.8369 32.9327C29.6078 33.1808 29.193 32.7075 28.6525 32.0909C28.0375 31.3893 27.2599 30.5021 26.4083 30.281C25.6106 30.074 24.6914 30.3873 23.9319 30.6462C23.2637 30.8739 22.719 31.0596 22.4898 30.8114C22.2651 30.5681 22.5462 30.0525 22.8971 29.409C23.3112 28.6497 23.8223 27.7123 23.7143 26.8338C23.6175 26.047 23.1057 25.4019 22.6663 24.8481Z" fill="#D3D2D2"/>
<path d="M75.6969 12.4464V13.5406L67.4446 30.7742H62.46L54.2077 13.5406V12.4464H58.6939L64.9523 26.3974L71.2108 12.4464H75.6969ZM73.6018 30.7742V29.68L81.8541 12.4464H86.8388L95.0915 29.68V30.7742H90.6049L88.9992 27.2181H79.6665L78.088 30.7742H73.6018ZM87.1715 23.1148L84.3465 16.8506L81.5218 23.1148H87.1715ZM111.736 24.209V12.4464H116.72V30.7742H111.736L102.016 19.0116V30.7742H97.0313V12.4464H102.016L111.736 24.209ZM119.617 17.0968V30.7742H124.047V19.0116L120.724 17.0968H119.617ZM119.34 12.3097C119.34 11.7443 119.506 11.2611 119.838 10.8599C120.17 10.4586 120.798 10.2581 121.721 10.2581H121.943C122.866 10.2581 123.493 10.4586 123.826 10.8599C124.158 11.2611 124.324 11.7443 124.324 12.3097V12.6379C124.324 13.2033 124.158 13.6865 123.826 14.0877C123.493 14.489 122.866 14.6895 121.943 14.6895H121.721C120.798 14.6895 120.17 14.489 119.838 14.0877C119.506 13.6865 119.34 13.2033 119.34 12.6379V12.3097ZM128.057 10.2581L131.381 12.1729V30.7742H126.95V10.2581H128.057ZM139.268 12.4464V19.5587H142.452L148.489 12.4464H153.363V13.5406L146.523 21.6103L153.363 29.68V30.7742H148.489L142.674 23.9355H139.268V30.7742H134.283V12.4464H139.268ZM154.807 30.7742V29.68L163.06 12.4464H168.044L176.297 29.68V30.7742H171.81L170.204 27.2181H160.872L159.294 30.7742H154.807ZM168.377 23.1148L165.552 16.8506L162.727 23.1148H168.377Z" fill="black"/>
<path d="M56.8471 39.2457C56.8471 39.0861 56.8787 38.975 56.9423 38.9123C57.0059 38.8496 57.1154 38.8182 57.2712 38.8182C57.4386 38.8182 57.5624 38.8524 57.6433 38.9208C57.7242 38.9892 57.7645 39.1231 57.7645 39.3226V41.5537H57.9116L60.127 38.9892C60.2191 38.8752 60.3316 38.8182 60.4645 38.8182C60.551 38.8182 60.6233 38.8467 60.6808 38.9037C60.7383 38.9607 60.7673 39.0234 60.7673 39.0918C60.7673 39.1317 60.7531 39.1659 60.7241 39.1944L58.5779 41.605L60.7933 44.3149C60.8742 44.4059 60.9145 44.4888 60.9145 44.5628C60.9145 44.6482 60.8798 44.7222 60.8106 44.785C60.747 44.8478 60.6635 44.879 60.5596 44.879C60.4156 44.879 60.2827 44.8534 60.1616 44.8021C60.046 44.7453 59.9249 44.6311 59.7981 44.4602L57.9116 42.0153H57.7645V44.3661C57.7645 44.5598 57.7242 44.694 57.6433 44.7679C57.5684 44.8419 57.4499 44.879 57.2885 44.879C57.1327 44.879 57.0202 44.8449 56.951 44.7765C56.8818 44.7081 56.8471 44.5999 56.8471 44.4516V42.0153H56.7L54.8135 44.4602C54.6867 44.6311 54.5625 44.7453 54.4414 44.8021C54.3258 44.8534 54.196 44.879 54.052 44.879C53.9481 44.879 53.8616 44.8478 53.7923 44.785C53.7287 44.7222 53.6971 44.6482 53.6971 44.5628C53.6971 44.4888 53.7374 44.4059 53.8183 44.3149L56.0337 41.605L53.8875 39.1944C53.8585 39.1659 53.8443 39.1317 53.8443 39.0918C53.8443 39.0234 53.8732 38.9607 53.9308 38.9037C53.9883 38.8467 54.0606 38.8182 54.1471 38.8182C54.28 38.8182 54.3925 38.8752 54.4846 38.9892L56.7 41.5537H56.8471V39.2457ZM66.1825 38.8182C66.3153 38.8182 66.4131 38.8524 66.4767 38.9208C66.5459 38.9892 66.5806 39.0975 66.5806 39.2457V44.4516C66.5806 44.6055 66.5516 44.7166 66.494 44.785C66.4365 44.8478 66.3382 44.879 66.1998 44.879C66.0211 44.879 65.8826 44.8248 65.7844 44.7166C65.6922 44.6025 65.6459 44.4375 65.6459 44.2208V40.0065L62.8421 44.5799C62.7902 44.6709 62.7266 44.7453 62.6517 44.8021C62.5769 44.8534 62.4613 44.879 62.3056 44.879C62.1727 44.879 62.0719 44.8449 62.0027 44.7765C61.9391 44.7081 61.9075 44.5999 61.9075 44.4516V39.2457C61.9075 39.0918 61.9365 38.9835 61.994 38.9208C62.0516 38.8524 62.1498 38.8182 62.2882 38.8182C62.467 38.8182 62.6028 38.8752 62.695 38.9892C62.7932 39.0975 62.8421 39.2599 62.8421 39.4765V43.6908L65.6459 39.1174C65.7095 39.0148 65.7758 38.9408 65.845 38.8952C65.9142 38.8439 66.0267 38.8182 66.1825 38.8182ZM70.8145 44.3661C70.8145 44.5598 70.7712 44.694 70.6846 44.7679C70.6037 44.8419 70.4683 44.879 70.2779 44.879C70.1451 44.879 70.0443 44.8449 69.975 44.7765C69.9114 44.7081 69.8798 44.5999 69.8798 44.4516V39.2713H68.5818V39.8782C68.5818 40.0777 68.5385 40.2202 68.452 40.3057C68.371 40.3911 68.2469 40.4339 68.0798 40.4339C67.9526 40.4339 67.8574 40.3997 67.7943 40.3313C67.7363 40.2629 67.7077 40.1546 67.7077 40.0065V39.1345C67.7077 39.0148 67.748 38.9322 67.8289 38.8866C67.9154 38.841 68.0478 38.8182 68.2269 38.8182H72.4673C72.646 38.8182 72.7758 38.841 72.8568 38.8866C72.9433 38.9322 72.9866 39.0148 72.9866 39.1345V40.0065C72.9866 40.1546 72.9545 40.2629 72.8914 40.3313C72.8334 40.3997 72.7412 40.4339 72.6145 40.4339C72.447 40.4339 72.3202 40.3911 72.2337 40.3057C72.1528 40.2202 72.1125 40.0777 72.1125 39.8782V39.2713H70.8145V44.3661ZM76.529 44.3661C76.529 44.5598 76.4858 44.694 76.3992 44.7679C76.3187 44.8419 76.1829 44.879 75.9925 44.879C75.8601 44.879 75.7588 44.8449 75.6896 44.7765C75.6264 44.7081 75.5944 44.5999 75.5944 44.4516V39.2713H74.2963V39.8782C74.2963 40.0777 74.2531 40.2202 74.1665 40.3057C74.086 40.3911 73.9619 40.4339 73.7944 40.4339C73.6676 40.4339 73.5724 40.3997 73.5088 40.3313C73.4513 40.2629 73.4223 40.1546 73.4223 40.0065V39.1345C73.4223 39.0148 73.463 38.9322 73.5434 38.8866C73.63 38.841 73.7628 38.8182 73.9415 38.8182H78.1819C78.361 38.8182 78.4908 38.841 78.5713 38.8866C78.6579 38.9322 78.7011 39.0148 78.7011 39.1345V40.0065C78.7011 40.1546 78.6695 40.2629 78.6059 40.3313C78.5484 40.3997 78.4562 40.4339 78.329 40.4339C78.162 40.4339 78.0348 40.3911 77.9482 40.3057C77.8678 40.2202 77.8271 40.0777 77.8271 39.8782V39.2713H76.529V44.3661ZM83.6632 44.4516C83.6632 44.5999 83.6286 44.7081 83.5594 44.7765C83.4962 44.8449 83.398 44.879 83.2652 44.879C83.0808 44.879 82.945 44.8363 82.8584 44.7508C82.7719 44.6653 82.7286 44.523 82.7286 44.3234V42.1949H81.9411L80.4873 44.5542C80.4181 44.6683 80.3315 44.7508 80.2277 44.8021C80.1238 44.8534 80.0144 44.879 79.8988 44.879C79.7547 44.879 79.6453 44.8534 79.57 44.8021C79.4951 44.7508 79.4575 44.6824 79.4575 44.5969C79.4575 44.523 79.4834 44.4486 79.5354 44.3747L80.9719 42.135C80.7183 42.1065 80.476 42.0267 80.245 41.8957C80.0144 41.7589 79.824 41.5794 79.6738 41.3571C79.5297 41.1292 79.4575 40.8755 79.4575 40.5963C79.4575 39.9751 79.6595 39.5249 80.0632 39.2457C80.473 38.9607 81.0009 38.8182 81.6469 38.8182H83.2825C83.4209 38.8182 83.5192 38.8524 83.5767 38.9208C83.6347 38.9835 83.6632 39.0918 83.6632 39.2457V44.4516ZM81.7334 39.2713C81.4046 39.2713 81.1047 39.3653 80.8334 39.5534C80.5682 39.7415 80.4354 40.072 80.4354 40.545C80.4354 40.9838 80.5652 41.2944 80.8248 41.4768C81.0844 41.6534 81.4107 41.7418 81.8027 41.7418H82.7286V39.2713H81.7334ZM88.5129 44.2721C88.6976 44.3349 88.859 44.3802 88.9975 44.4089C89.1416 44.4315 89.3207 44.4431 89.534 44.4431C89.8572 44.4431 90.1225 44.3777 90.3302 44.2465C90.5435 44.1152 90.6993 43.9503 90.7975 43.7507C90.9013 43.5455 90.9533 43.3318 90.9533 43.1095C90.9533 42.7731 90.8524 42.5026 90.6504 42.2974C90.4483 42.0866 90.0909 41.9811 89.5773 41.9811H88.7725C88.7322 41.9811 88.7002 41.9584 88.6773 41.9128C88.6544 41.8671 88.6427 41.813 88.6427 41.7503C88.6427 41.6876 88.6544 41.6335 88.6773 41.5879C88.7002 41.5366 88.7322 41.511 88.7725 41.511H89.5859C90.3821 41.511 90.7802 41.1149 90.7802 40.3228C90.7802 40.0036 90.6707 39.7471 90.4513 39.5534C90.2319 39.3539 89.9321 39.2542 89.5513 39.2542C89.2225 39.2542 88.9166 39.2855 88.634 39.3482V39.8269C88.634 40.0264 88.5907 40.1689 88.5042 40.2544C88.4233 40.3399 88.2995 40.3826 88.1321 40.3826C88.0053 40.3826 87.9101 40.3484 87.8465 40.28C87.789 40.2116 87.76 40.1034 87.76 39.9552V39.4679C87.76 39.3426 87.7829 39.2542 87.8292 39.2029C87.8811 39.1459 87.9763 39.0946 88.1148 39.049C88.6284 38.8952 89.1649 38.8182 89.7244 38.8182C90.4167 38.8182 90.9243 38.9607 91.2475 39.2457C91.5707 39.5249 91.7321 39.8839 91.7321 40.3228C91.7321 40.6989 91.6313 40.9981 91.4292 41.2203C91.2332 41.4369 90.9762 41.5936 90.659 41.6905V41.7418C91.5071 41.8729 91.9311 42.3288 91.9311 43.1095C91.9311 43.4057 91.8502 43.6878 91.6888 43.9558C91.5274 44.2238 91.2704 44.4461 90.9186 44.6226C90.5669 44.7936 90.1194 44.879 89.5773 44.879C89.2887 44.879 89.0031 44.8564 88.7206 44.8107C88.438 44.7594 88.1896 44.691 87.9763 44.6055C87.8435 44.5486 87.7544 44.4974 87.7081 44.4516C87.6618 44.4003 87.6388 44.3149 87.6388 44.1952V43.6823C87.6388 43.4087 87.763 43.2719 88.0109 43.2719C88.1784 43.2719 88.3021 43.3147 88.3831 43.4002C88.4696 43.4801 88.5129 43.6169 88.5129 43.8105V44.2721ZM96.3403 44.426C96.271 44.6085 96.1901 44.7307 96.098 44.7936C96.0114 44.8504 95.9162 44.879 95.8124 44.879C95.7315 44.879 95.6709 44.859 95.6307 44.8192C95.596 44.7735 95.5787 44.7166 95.5787 44.6482C95.5787 44.5798 95.593 44.5085 95.622 44.4345L97.6556 39.0234C97.6786 38.9607 97.7335 38.9123 97.8201 38.8781C97.9122 38.8382 98.0161 38.8182 98.1316 38.8182C98.2584 38.8182 98.3709 38.8382 98.4691 38.8781C98.573 38.918 98.6366 38.975 98.6595 39.049L100.641 44.4687C100.653 44.5256 100.659 44.5683 100.659 44.5969C100.659 44.6769 100.63 44.7453 100.572 44.8021C100.52 44.8534 100.437 44.879 100.321 44.879C100.2 44.879 100.076 44.8478 99.9489 44.785C99.8278 44.7222 99.7356 44.6025 99.672 44.426L99.2133 43.2548H96.7816L96.3403 44.426ZM98.0364 39.8269H97.9845L96.9201 42.8103H99.0835L98.0364 39.8269ZM102.941 44.3234C102.941 44.523 102.898 44.6653 102.812 44.7508C102.725 44.8363 102.59 44.879 102.405 44.879C102.272 44.879 102.171 44.8449 102.102 44.7765C102.039 44.7081 102.007 44.5999 102.007 44.4516V39.2457C102.007 39.0918 102.036 38.9835 102.093 38.9208C102.151 38.8524 102.249 38.8182 102.388 38.8182H103.833C104.191 38.8182 104.534 38.8524 104.863 38.9208C105.197 38.9892 105.5 39.1545 105.771 39.4166C106.043 39.6731 106.178 40.0634 106.178 40.5878C106.178 40.9525 106.091 41.283 105.918 41.5794C105.745 41.87 105.483 42.1008 105.131 42.2718C104.785 42.4428 104.355 42.5282 103.841 42.5282H102.941V44.3234ZM102.941 42.0752H103.833C104.265 42.0752 104.6 41.9555 104.837 41.7161C105.079 41.4711 105.2 41.095 105.2 40.5878C105.2 40.166 105.094 39.8412 104.88 39.6132C104.672 39.3853 104.323 39.2713 103.833 39.2713H102.941V42.0752ZM112.307 41.8529C112.307 42.2803 112.24 42.7192 112.108 43.1694C111.981 43.6194 111.721 44.0186 111.329 44.3661C110.936 44.7081 110.38 44.879 109.659 44.879C108.937 44.879 108.381 44.7081 107.988 44.3661C107.602 44.0186 107.345 43.6194 107.218 43.1694C107.091 42.7192 107.028 42.2803 107.028 41.8529C107.028 41.4255 107.091 40.9867 107.218 40.5365C107.345 40.0863 107.602 39.6873 107.988 39.3397C108.381 38.9921 108.937 38.8182 109.659 38.8182C110.38 38.8182 110.936 38.9921 111.329 39.3397C111.721 39.6873 111.981 40.0891 112.108 40.545C112.24 40.9952 112.307 41.4312 112.307 41.8529ZM111.329 41.8529C111.329 41.1918 111.216 40.5934 110.991 40.0578C110.766 39.5221 110.322 39.2542 109.659 39.2542C109.006 39.2542 108.568 39.5221 108.343 40.0578C108.118 40.5934 108.006 41.1918 108.006 41.8529C108.006 42.5083 108.118 43.104 108.343 43.6395C108.568 44.1751 109.006 44.4431 109.659 44.4431C110.322 44.4431 110.766 44.1781 110.991 43.6481C111.216 43.1125 111.329 42.514 111.329 41.8529ZM119.219 44.879C118.873 44.879 118.7 44.6598 118.7 44.2208V40.0834H118.639L116.857 44.5628C116.77 44.7735 116.649 44.879 116.493 44.879C116.332 44.879 116.208 44.7735 116.121 44.5628L114.46 40.0834H114.399V44.4003C114.399 44.5657 114.362 44.688 114.287 44.7679C114.217 44.8419 114.137 44.879 114.044 44.879C113.952 44.879 113.874 44.8478 113.811 44.785C113.747 44.7222 113.715 44.6256 113.715 44.4944V39.2713C113.715 39.1288 113.77 39.0177 113.88 38.9379C113.99 38.8581 114.12 38.8182 114.269 38.8182C114.397 38.8182 114.52 38.8524 114.641 38.9208C114.769 38.9835 114.861 39.0861 114.918 39.2286L116.58 43.7678H116.623L118.432 39.2713C118.49 39.1117 118.582 38.9978 118.709 38.9294C118.842 38.8553 118.983 38.8182 119.133 38.8182C119.283 38.8182 119.392 38.8553 119.462 38.9294C119.537 39.0034 119.574 39.1174 119.574 39.2713V44.4516C119.574 44.6111 119.548 44.7222 119.496 44.785C119.444 44.8478 119.352 44.879 119.219 44.879ZM121.651 44.426C121.581 44.6085 121.501 44.7307 121.408 44.7936C121.322 44.8504 121.227 44.879 121.123 44.879C121.042 44.879 120.982 44.859 120.941 44.8192C120.906 44.7735 120.889 44.7166 120.889 44.6482C120.889 44.5798 120.904 44.5085 120.932 44.4345L122.966 39.0234C122.989 38.9607 123.044 38.9123 123.13 38.8781C123.223 38.8382 123.327 38.8182 123.442 38.8182C123.569 38.8182 123.682 38.8382 123.779 38.8781C123.883 38.918 123.947 38.975 123.97 39.049L125.952 44.4687C125.963 44.5256 125.969 44.5683 125.969 44.5969C125.969 44.6769 125.94 44.7453 125.882 44.8021C125.83 44.8534 125.747 44.879 125.631 44.879C125.51 44.879 125.386 44.8478 125.259 44.785C125.138 44.7222 125.046 44.6025 124.982 44.426L124.524 43.2548H122.092L121.651 44.426ZM123.347 39.8269H123.295L122.23 42.8103H124.394L123.347 39.8269ZM129.123 44.3661C129.123 44.5598 129.08 44.694 128.993 44.7679C128.913 44.8419 128.777 44.879 128.587 44.879C128.454 44.879 128.353 44.8449 128.284 44.7765C128.221 44.7081 128.189 44.5999 128.189 44.4516V39.2713H126.891V39.8782C126.891 40.0777 126.847 40.2202 126.761 40.3057C126.68 40.3911 126.556 40.4339 126.389 40.4339C126.262 40.4339 126.167 40.3997 126.103 40.3313C126.045 40.2629 126.016 40.1546 126.016 40.0065V39.1345C126.016 39.0148 126.057 38.9322 126.138 38.8866C126.224 38.841 126.357 38.8182 126.536 38.8182H130.776C130.955 38.8182 131.085 38.841 131.166 38.8866C131.252 38.9322 131.295 39.0148 131.295 39.1345V40.0065C131.295 40.1546 131.264 40.2629 131.2 40.3313C131.143 40.3997 131.05 40.4339 130.923 40.4339C130.756 40.4339 130.629 40.3911 130.542 40.3057C130.462 40.2202 130.421 40.0777 130.421 39.8782V39.2713H129.123V44.3661ZM137.127 41.8529C137.127 42.2803 137.06 42.7192 136.928 43.1694C136.801 43.6194 136.541 44.0186 136.149 44.3661C135.757 44.7081 135.2 44.879 134.479 44.879C133.758 44.879 133.201 44.7081 132.808 44.3661C132.422 44.0186 132.165 43.6194 132.038 43.1694C131.911 42.7192 131.848 42.2803 131.848 41.8529C131.848 41.4255 131.911 40.9867 132.038 40.5365C132.165 40.0863 132.422 39.6873 132.808 39.3397C133.201 38.9921 133.758 38.8182 134.479 38.8182C135.2 38.8182 135.757 38.9921 136.149 39.3397C136.541 39.6873 136.801 40.0891 136.928 40.545C137.06 40.9952 137.127 41.4312 137.127 41.8529ZM136.149 41.8529C136.149 41.1918 136.036 40.5934 135.811 40.0578C135.586 39.5221 135.142 39.2542 134.479 39.2542C133.827 39.2542 133.388 39.5221 133.163 40.0578C132.938 40.5934 132.826 41.1918 132.826 41.8529C132.826 42.5083 132.938 43.104 133.163 43.6395C133.388 44.1751 133.827 44.4431 134.479 44.4431C135.142 44.4431 135.586 44.1781 135.811 43.6481C136.036 43.1125 136.149 42.514 136.149 41.8529ZM144.04 44.879C143.694 44.879 143.521 44.6598 143.521 44.2208V40.0834H143.46L141.677 44.5628C141.591 44.7735 141.47 44.879 141.314 44.879C141.152 44.879 141.028 44.7735 140.942 44.5628L139.28 40.0834H139.22V44.4003C139.22 44.5657 139.182 44.688 139.107 44.7679C139.038 44.8419 138.957 44.879 138.865 44.879C138.773 44.879 138.695 44.8478 138.631 44.785C138.568 44.7222 138.536 44.6256 138.536 44.4944V39.2713C138.536 39.1288 138.591 39.0177 138.7 38.9379C138.81 38.8581 138.94 38.8182 139.09 38.8182C139.217 38.8182 139.341 38.8524 139.462 38.9208C139.589 38.9835 139.681 39.0861 139.739 39.2286L141.4 43.7678H141.444L143.252 39.2713C143.31 39.1117 143.402 38.9978 143.529 38.9294C143.662 38.8553 143.803 38.8182 143.953 38.8182C144.103 38.8182 144.213 38.8553 144.282 38.9294C144.357 39.0034 144.395 39.1174 144.395 39.2713V44.4516C144.395 44.6111 144.369 44.7222 144.317 44.785C144.265 44.8478 144.173 44.879 144.04 44.879ZM148.892 39.2457C148.892 39.0975 148.924 38.9892 148.988 38.9208C149.057 38.8524 149.158 38.8182 149.291 38.8182H151.065C152.345 38.8182 152.986 39.3255 152.986 40.3398C152.986 40.6248 152.896 40.8926 152.717 41.1434C152.544 41.3884 152.308 41.548 152.008 41.6221V41.6649C152.446 41.7389 152.772 41.9042 152.986 42.1607C153.199 42.4114 153.306 42.7134 153.306 43.0668C153.306 43.7562 153.078 44.2324 152.622 44.4944C152.172 44.7508 151.667 44.879 151.108 44.879H149.291C149.158 44.879 149.057 44.8449 148.988 44.7765C148.924 44.7081 148.892 44.5999 148.892 44.4516V39.2457ZM149.827 41.4768H150.822C151.007 41.4768 151.189 41.4397 151.367 41.3657C151.552 41.2859 151.705 41.1605 151.826 40.9895C151.947 40.8129 152.008 40.5878 152.008 40.3142C152.008 39.9438 151.878 39.6788 151.618 39.5192C151.359 39.3539 151.07 39.2713 150.753 39.2713H149.827V41.4768ZM149.827 44.426H150.987C151.327 44.426 151.636 44.329 151.913 44.1353C152.19 43.9357 152.328 43.6083 152.328 43.1523C152.328 42.8672 152.256 42.6337 152.112 42.4513C151.968 42.2689 151.786 42.1379 151.567 42.0581C151.347 41.9726 151.125 41.9298 150.9 41.9298H149.827V44.426ZM154.867 44.426C154.798 44.6085 154.717 44.7307 154.625 44.7936C154.538 44.8504 154.443 44.879 154.339 44.879C154.258 44.879 154.198 44.859 154.157 44.8192C154.123 44.7735 154.106 44.7166 154.106 44.6482C154.106 44.5798 154.12 44.5085 154.149 44.4345L156.182 39.0234C156.205 38.9607 156.26 38.9123 156.347 38.8781C156.439 38.8382 156.543 38.8182 156.658 38.8182C156.785 38.8182 156.898 38.8382 156.996 38.8781C157.1 38.918 157.163 38.975 157.186 39.049L159.168 44.4687C159.18 44.5256 159.185 44.5683 159.185 44.5969C159.185 44.6769 159.156 44.7453 159.099 44.8021C159.047 44.8534 158.963 44.879 158.848 44.879C158.727 44.879 158.603 44.8478 158.476 44.785C158.355 44.7222 158.262 44.6025 158.199 44.426L157.74 43.2548H155.308L154.867 44.426ZM156.563 39.8269H156.511L155.447 42.8103H157.61L156.563 39.8269ZM164.826 38.8182C164.959 38.8182 165.057 38.8524 165.12 38.9208C165.189 38.9892 165.224 39.0975 165.224 39.2457V44.4516C165.224 44.6055 165.195 44.7166 165.137 44.785C165.08 44.8478 164.982 44.879 164.843 44.879C164.665 44.879 164.526 44.8248 164.428 44.7166C164.336 44.6025 164.289 44.4375 164.289 44.2208V41.9811H161.468V44.3234C161.468 44.523 161.425 44.6653 161.338 44.7508C161.252 44.8363 161.116 44.879 160.932 44.879C160.799 44.879 160.698 44.8449 160.629 44.7765C160.565 44.7081 160.534 44.5999 160.534 44.4516V39.2457C160.534 39.0918 160.563 38.9835 160.62 38.9208C160.678 38.8524 160.776 38.8182 160.914 38.8182C161.093 38.8182 161.229 38.8752 161.321 38.9892C161.419 39.0975 161.468 39.2599 161.468 39.4765V41.511H164.289V39.3739C164.289 39.1744 164.333 39.0319 164.419 38.9465C164.506 38.861 164.641 38.8182 164.826 38.8182ZM166.61 44.879C166.507 44.879 166.437 44.8619 166.403 44.8278C166.368 44.788 166.351 44.7367 166.351 44.6739C166.351 44.5999 166.374 44.5401 166.42 44.4944C166.472 44.4486 166.564 44.426 166.697 44.426H167.476V39.2713H166.697C166.564 39.2713 166.472 39.2485 166.42 39.2029C166.374 39.1573 166.351 39.0975 166.351 39.0234C166.351 38.9607 166.368 38.9123 166.403 38.8781C166.437 38.8382 166.507 38.8182 166.61 38.8182H169.276C169.38 38.8182 169.449 38.8382 169.483 38.8781C169.518 38.9123 169.535 38.9607 169.535 39.0234C169.535 39.0975 169.509 39.1573 169.457 39.2029C169.411 39.2485 169.322 39.2713 169.189 39.2713H168.41V44.426H169.189C169.322 44.426 169.411 44.4486 169.457 44.4944C169.509 44.5401 169.535 44.5999 169.535 44.6739C169.535 44.7367 169.518 44.788 169.483 44.8278C169.449 44.8619 169.38 44.879 169.276 44.879H166.61ZM174.764 38.8182C174.896 38.8182 174.995 38.8524 175.058 38.9208C175.127 38.9892 175.162 39.0975 175.162 39.2457V44.4516C175.162 44.6055 175.133 44.7166 175.076 44.785C175.018 44.8478 174.92 44.879 174.781 44.879C174.602 44.879 174.464 44.8248 174.366 44.7166C174.273 44.6025 174.227 44.4375 174.227 44.2208V39.2713H172.194V40.1347C172.194 40.8869 172.168 41.5252 172.116 42.0495C172.064 42.5681 171.974 43.0211 171.848 43.4087C171.778 43.6194 171.669 43.8391 171.519 44.0669C171.374 44.2948 171.199 44.4888 170.991 44.6482C170.789 44.8021 170.573 44.879 170.342 44.879C170.238 44.879 170.148 44.8333 170.074 44.7423C170.004 44.6452 169.97 44.5371 169.97 44.4174C169.97 44.3148 169.998 44.2409 170.056 44.1952C170.114 44.1439 170.241 44.087 170.437 44.0242C170.818 43.893 171.092 43.5882 171.259 43.1095C171.374 42.7847 171.444 42.4114 171.467 41.9897C171.495 41.5623 171.51 40.9525 171.51 40.1603V39.2457C171.51 39.0918 171.539 38.9835 171.597 38.9208C171.654 38.8524 171.752 38.8182 171.891 38.8182H174.764ZM176.544 44.879C176.44 44.879 176.371 44.8619 176.336 44.8278C176.302 44.788 176.284 44.7367 176.284 44.6739C176.284 44.5999 176.308 44.5401 176.354 44.4944C176.406 44.4486 176.498 44.426 176.631 44.426H177.409V39.2713H176.631C176.498 39.2713 176.406 39.2485 176.354 39.2029C176.308 39.1573 176.284 39.0975 176.284 39.0234C176.284 38.9607 176.302 38.9123 176.336 38.8781C176.371 38.8382 176.44 38.8182 176.544 38.8182H179.209C179.313 38.8182 179.383 38.8382 179.417 38.8781C179.452 38.9123 179.469 38.9607 179.469 39.0234C179.469 39.0975 179.443 39.1573 179.391 39.2029C179.345 39.2485 179.256 39.2713 179.123 39.2713H178.344V44.426H179.123C179.256 44.426 179.345 44.4486 179.391 44.4944C179.443 44.5401 179.469 44.5999 179.469 44.6739C179.469 44.7367 179.452 44.788 179.417 44.8278C179.383 44.8619 179.313 44.879 179.209 44.879H176.544Z" fill="black"/>
</g>
<defs>
<clipPath id="clip0_51_6">
<rect width="180" height="53" fill="white"/>
</clipPath>
</defs>
</svg>
